<?xml version="1.0" encoding="UTF-8" standalone="no"?><!DOCTYPE svg PUBLIC "-//W3C//DTD SVG 1.1//EN" "http://www.w3.org/Graphics/SVG/1.1/DTD/svg11.dtd"><svg width="150px" height="67px" version="1.1" xmlns="http://www.w3.org/2000/svg" xmlns:xlink="http://www.w3.org/1999/xlink" xml:space="preserve" style="fill-rule:evenodd;clip-rule:evenodd;stroke-linejoin:round;stroke-miterlimit:1.41421;"><g transform="matrix(1,0,0,1,0,-0.678001)"><g><path d="M147.17,53.99L147.17,64.649L136.432,64.649L134.393,67L149.52,67L149.52,51.952L147.17,53.99Z" style="fill-rule:nonzero;"/><path d="M2.351,13.689L2.351,3.029L13.089,3.029L15.127,0.678L2.351,0.678L0.078,0.678L0,0.678L0,15.727L2.351,13.689Z" style="fill-rule:nonzero;"/><path d="M16.708,56.715C16.064,57.861 15.194,58.504 14.506,58.871C13.176,59.605 11.708,59.651 10.927,59.651C9.276,59.651 7.349,59.238 5.836,57.357C4.368,55.522 4.184,53.228 4.184,51.76L4.184,35.521C4.184,33.595 4.276,31.622 5.698,29.65C7.533,27.081 10.423,26.622 12.166,26.622C14.552,26.622 16.57,27.402 17.855,28.686C19.093,29.925 20.195,31.989 20.195,34.971L20.195,36.255L15.607,36.255L15.607,34.65C15.607,33.87 15.515,32.861 14.689,32.035C14.231,31.576 13.451,31.117 12.212,31.117C11.019,31.117 10.193,31.622 9.643,32.264C8.772,33.32 8.772,34.512 8.772,35.659L8.772,50.705C8.772,51.669 8.817,53.046 9.551,54.008C10.102,54.696 11.019,55.155 12.121,55.155C13.084,55.155 14.185,54.65 14.781,53.871C15.607,52.815 15.607,51.256 15.607,50.109L15.607,45.797L11.708,45.797L11.708,41.669L20.195,41.669L20.195,59.192L17.901,59.192L16.708,56.715Z" style="fill-rule:nonzero;"/><path d="M32.164,36.026L29.779,48.228L34.64,48.228L32.164,36.026ZM36.706,59.192L35.19,52.311L29.318,52.311L27.806,59.192L23.218,59.192L30.236,27.081L34.273,27.081L41.292,59.192L36.706,59.192Z" style="fill-rule:nonzero;"/><path d="M58.95,27.081L58.95,30.613L49.316,55.063L58.719,55.063L58.719,59.192L44.5,59.192L44.5,55.155L53.904,31.209L45.142,31.209L45.142,27.081L58.95,27.081Z" style="fill-rule:nonzero;"/><path d="M63.763,27.081L77.387,27.081L77.387,31.439L68.351,31.439L68.351,40.888L76.332,40.888L76.332,45.017L68.351,45.017L68.351,54.834L77.525,54.834L77.525,59.192L63.763,59.192L63.763,27.081Z" style="fill-rule:nonzero;"/><path d="M96.008,27.081L96.008,31.439L90.32,31.439L90.32,59.192L85.732,59.192L85.732,31.439L80.044,31.439L80.044,27.081L96.008,27.081Z" style="fill-rule:nonzero;"/><path d="M104.263,27.081L111.924,47.264L111.924,27.081L116.511,27.081L116.511,59.192L111.924,59.192L104.263,39.008L104.263,59.192L99.675,59.192L99.675,27.081L104.263,27.081Z" style="fill-rule:nonzero;"/><rect x="139.226" y="27.081" width="4.586" height="32.111" style="fill-rule:nonzero;"/><path d="M130.072,45.66L130.072,59.192L125.484,59.192L125.484,45.521L118.742,27.081L123.788,27.081L127.778,39.834L128.054,39.834L131.953,27.081L136.815,27.081L130.072,45.66Z" style="fill-rule:nonzero;"/><path d="M8.785,7.77L8.785,21.635L13.644,21.635L13.644,23.812L6.493,23.812L6.493,7.77L8.785,7.77Z" style="fill-rule:nonzero;"/><path d="M20.313,11.643C20.313,11.162 20.267,10.681 19.832,10.245C19.58,9.993 19.167,9.787 18.594,9.787C18.021,9.787 17.608,9.993 17.357,10.245C16.922,10.681 16.876,11.162 16.876,11.643L16.876,19.939C16.876,20.42 16.922,20.902 17.357,21.337C17.608,21.589 18.021,21.796 18.594,21.796C19.167,21.796 19.58,21.589 19.832,21.337C20.267,20.902 20.313,20.42 20.313,19.939L20.313,11.643ZM14.584,11.987C14.584,10.772 14.675,9.604 15.776,8.572C16.463,7.93 17.403,7.541 18.594,7.541C19.786,7.541 20.726,7.93 21.413,8.572C22.514,9.604 22.604,10.772 22.604,11.987L22.604,19.595C22.604,20.81 22.514,21.978 21.413,23.01C20.726,23.652 19.786,24.041 18.594,24.041C17.403,24.041 16.463,23.652 15.776,23.01C14.675,21.978 14.584,20.81 14.584,19.595L14.584,11.987Z" style="fill-rule:nonzero;"/><path d="M25.263,7.77L32.23,7.77L32.23,9.947L27.554,9.947L27.554,14.76L31.657,14.76L31.657,16.937L27.554,16.937L27.554,23.812L25.263,23.812L25.263,7.77Z" style="fill-rule:nonzero;"/><path d="M41.236,7.77L41.236,9.947L38.395,9.947L38.395,23.812L36.103,23.812L36.103,9.947L33.261,9.947L33.261,7.77L41.236,7.77Z" style="fill-rule:nonzero;"/></g></g></svg>